<svg xmlns="http://www.w3.org/2000/svg" width="128" height="128" viewBox="0 0 128 128">
  <!-- 배경 그라디언트 -->
  <defs>
    <linearGradient id="bg" x1="0%" y1="0%" x2="100%" y2="100%">
      <stop offset="0%" stop-color="#6366f1"/>
      <stop offset="100%" stop-color="#a855f7"/>
    </linearGradient>
  </defs>

  <!-- 둥근 배경 -->
  <rect x="4" y="4" width="120" height="120" rx="24" fill="url(#bg)"/>

  <!-- 클래퍼보드 본체 (하단) -->
  <rect x="24" y="52" width="80" height="52" rx="6" fill="#ffffff"/>

  <!-- 클래퍼보드 상단 (벌어진 부분) - 회전됨 -->
  <g transform="rotate(-25, 24, 52)">
    <rect x="24" y="32" width="80" height="20" rx="4" fill="#ffffff"/>
    <!-- 빗금 라인들 (상단) -->
    <g stroke="#6366f1" stroke-width="3.5" stroke-linecap="round">
      <line x1="36" y1="32" x2="42" y2="52"/>
      <line x1="52" y1="32" x2="58" y2="52"/>
      <line x1="68" y1="32" x2="74" y2="52"/>
      <line x1="84" y1="32" x2="90" y2="52"/>
    </g>
  </g>

  <!-- 클래퍼보드 본체 상단 빗금 (하단 고정부분) -->
  <rect x="24" y="52" width="80" height="12" rx="2" fill="#e5e7eb"/>
  <g stroke="#6366f1" stroke-width="3.5" stroke-linecap="round">
    <line x1="36" y1="52" x2="42" y2="64"/>
    <line x1="52" y1="52" x2="58" y2="64"/>
    <line x1="68" y1="52" x2="74" y2="64"/>
    <line x1="84" y1="52" x2="90" y2="64"/>
  </g>

  <!-- 힌지 (연결 부분) -->
  <circle cx="28" cy="52" r="5" fill="#fbbf24"/>
</svg>